<svg width="72" height="36" viewBox="0 0 72 36" fill="none" xmlns="http://www.w3.org/2000/svg">
<path fill-rule="evenodd" clip-rule="evenodd" d="M0 4C0 1.79086 1.79086 0 4 0H68C70.2091 0 72 1.79086 72 4V32C72 34.2091 70.2091 36 68 36H4C1.79086 36 0 34.2091 0 32V4ZM29.3396 23C29.2452 23 29.1651 22.9667 29.099 22.9C29.033 22.8333 29 22.7524 29 22.6571V13.3429C29 13.2381 29.033 13.1571 29.099 13.1C29.1651 13.0333 29.2452 13 29.3396 13H30.6553C30.7591 13 30.8393 13.0333 30.8959 13.1C30.9619 13.1571 30.9949 13.2381 30.9949 13.3429V21.3H35.4799C35.5836 21.3 35.6685 21.3333 35.7345 21.4C35.8006 21.4667 35.8336 21.5524 35.8336 21.6571V22.6571C35.8336 22.7619 35.8006 22.8476 35.7345 22.9143C35.6685 22.9714 35.5836 23 35.4799 23H29.3396ZM37.5466 23C37.4523 23 37.3721 22.9667 37.3061 22.9C37.2401 22.8333 37.207 22.7524 37.207 22.6571V13.3429C37.207 13.2381 37.2401 13.1571 37.3061 13.1C37.3721 13.0333 37.4523 13 37.5466 13H38.8765C38.9803 13 39.0605 13.0333 39.1171 13.1C39.1831 13.1571 39.2161 13.2381 39.2161 13.3429V22.6571C39.2161 22.7524 39.1831 22.8333 39.1171 22.9C39.0605 22.9667 38.9803 23 38.8765 23H37.5466ZM43.7835 22.6C43.8684 22.8667 44.0476 23 44.3211 23H45.8774C46.151 23 46.3302 22.8667 46.4151 22.6L49.4428 13.4286L49.4711 13.3C49.4711 13.2143 49.4381 13.1429 49.372 13.0857C49.3155 13.0286 49.2494 13 49.174 13H47.9289C47.8063 13 47.7073 13.0333 47.6318 13.1C47.5564 13.1667 47.5092 13.2381 47.4903 13.3143L45.0993 20.6714L42.7083 13.3143C42.68 13.2286 42.6281 13.1571 42.5526 13.1C42.4866 13.0333 42.3923 13 42.2697 13H41.0246C40.9397 13 40.869 13.0286 40.8124 13.0857C40.7558 13.1429 40.7275 13.2143 40.7275 13.3L40.7558 13.4286L43.7835 22.6ZM51.3079 23C51.2136 23 51.1334 22.9667 51.0674 22.9C51.0014 22.8333 50.9684 22.7524 50.9684 22.6571V13.3571C50.9684 13.2524 50.9967 13.1667 51.0532 13.1C51.1193 13.0333 51.2042 13 51.3079 13H57.5331C57.6369 13 57.7218 13.0333 57.7878 13.1C57.8538 13.1667 57.8868 13.2524 57.8868 13.3571V14.3C57.8868 14.4048 57.8538 14.4905 57.7878 14.5571C57.7218 14.6143 57.6369 14.6429 57.5331 14.6429H52.8784V17.1714H57.2218C57.3256 17.1714 57.4105 17.2048 57.4765 17.2714C57.5425 17.3286 57.5756 17.4095 57.5756 17.5143V18.4C57.5756 18.5048 57.5425 18.5905 57.4765 18.6571C57.4105 18.7143 57.3256 18.7429 57.2218 18.7429H52.8784V21.3571H57.6463C57.75 21.3571 57.8349 21.3905 57.901 21.4571C57.967 21.5238 58 21.6095 58 21.7143V22.6571C58 22.7619 57.967 22.8476 57.901 22.9143C57.8349 22.9714 57.75 23 57.6463 23H51.3079ZM17 21C18.6569 21 20 19.6569 20 18C20 16.3431 18.6569 15 17 15C15.3431 15 14 16.3431 14 18C14 19.6569 15.3431 21 17 21Z" fill="#E1163F"/>
</svg>
