<svg width="119" height="53" viewBox="0 0 119 53" fill="none" xmlns="http://www.w3.org/2000/svg">
<path d="M9.0322 6.42267C9.16454 6.13377 9.34981 5.90397 9.58802 5.73326C9.82623 5.54941 10.0975 5.45749 10.4019 5.45749C10.5078 5.45749 10.6467 5.49032 10.8188 5.55598C10.9908 5.62164 11.0768 5.72669 11.0768 5.87114C11.0768 5.97619 11.0636 6.07468 11.0371 6.1666C11.0239 6.24539 11.0041 6.35701 10.9776 6.50146C10.7658 7.47321 10.5806 8.45808 10.4218 9.45609C10.263 10.441 10.1174 11.4258 9.98504 12.4107C9.86594 13.3825 9.76006 14.3345 9.66743 15.2669C9.57479 16.1992 9.502 17.079 9.44907 17.9063C9.91226 17.9063 10.4151 17.9457 10.9577 18.0245C11.5136 18.1033 12.1157 18.3068 12.7642 18.6351C14.0479 18.3856 15.1264 18.0245 15.9999 17.5518C16.8866 17.0659 17.6012 16.4881 18.1438 15.8184C18.6864 15.1355 19.0768 14.3673 19.315 13.5138C19.5532 12.6471 19.6723 11.7082 19.6723 10.697C19.6723 9.41013 19.4804 8.3005 19.0966 7.36815C18.7261 6.42267 18.2033 5.64134 17.5284 5.02415C16.8667 4.40696 16.0793 3.95391 15.1661 3.66502C14.253 3.36299 13.2605 3.21197 12.1885 3.21197C11.0768 3.21197 9.97843 3.31703 8.89324 3.52713C7.80805 3.73724 6.83535 4.07867 5.97514 4.55141C5.12817 5.02415 4.44 5.64134 3.91064 6.40297C3.39452 7.16461 3.13645 8.10353 3.13645 9.21972C3.13645 9.79751 3.20924 10.349 3.35482 10.8743C3.50039 11.3996 3.67243 11.8789 3.87094 12.3122C4.06945 12.7456 4.26796 13.1198 4.46647 13.435C4.66498 13.737 4.82379 13.9603 4.94289 14.1047C5.00906 14.1835 5.06862 14.2623 5.12155 14.3411C5.17449 14.4199 5.20096 14.5249 5.20096 14.6562C5.20096 14.7613 5.15464 14.8532 5.062 14.932C4.9826 15.0108 4.8304 15.0502 4.60543 15.0502C4.28781 15.0502 3.86432 14.9451 3.33496 14.735C2.81884 14.5118 2.30933 14.1769 1.80644 13.7305C1.31678 13.284 0.893294 12.7127 0.535976 12.0168C0.178659 11.3208 0 10.5001 0 9.55458C0 8.88486 0.125723 8.18888 0.377169 7.46664C0.628614 6.7444 1.00578 6.03529 1.50867 5.33931C2.01157 4.64333 2.63356 3.98018 3.37467 3.34986C4.129 2.71954 5.00245 2.16801 5.995 1.69526C6.98754 1.22252 8.09258 0.848271 9.31011 0.572506C10.5409 0.283609 11.8907 0.13916 13.3597 0.13916C15.0934 0.13916 16.6087 0.401794 17.9056 0.927061C19.2157 1.45233 20.3076 2.15487 21.181 3.0347C22.0544 3.90139 22.7095 4.91253 23.1462 6.06812C23.583 7.21057 23.8013 8.40555 23.8013 9.65306C23.8013 11.1895 23.53 12.5355 22.9874 13.6911C22.4581 14.8335 21.7633 15.8184 20.9031 16.6457C20.0429 17.473 19.0702 18.1624 17.985 18.7139C16.8998 19.2655 15.808 19.7054 14.7096 20.0337C15.3448 20.6246 16.0131 21.3994 16.7145 22.358C17.4292 23.3166 18.1835 24.5247 18.9775 25.9823C19.454 26.8621 19.9502 27.7617 20.4664 28.6809C20.9825 29.6001 21.5648 30.4602 22.2132 31.2612C22.8617 32.0623 23.5896 32.7648 24.3969 33.3689C25.2041 33.9861 26.1371 34.4326 27.1958 34.7083C27.4208 34.774 27.573 34.8396 27.6524 34.9053C27.7451 34.971 27.7914 35.0366 27.7914 35.1023C27.7914 35.2467 27.6855 35.3321 27.4738 35.3583C27.2752 35.3977 27.037 35.4174 26.7591 35.4174C26.3489 35.4174 25.8195 35.3912 25.171 35.3386C24.5358 35.2861 23.8278 35.1482 23.047 34.925C22.2794 34.7018 21.4721 34.3538 20.6252 33.881C19.7782 33.4083 18.9445 32.7583 18.1239 31.931C17.5284 31.3269 17.0189 30.6835 16.5954 30.0006C16.1719 29.3309 15.7948 28.6546 15.4639 27.9718C15.1463 27.2758 14.8485 26.5864 14.5706 25.9035C14.2927 25.2207 14.0082 24.5641 13.717 23.9338C13.4259 23.3034 13.1016 22.7191 12.7443 22.1807C12.4002 21.6292 11.9834 21.1499 11.4937 20.7428C11.0835 20.8084 10.6931 20.8544 10.3225 20.8807C9.95196 20.9069 9.60787 20.9266 9.29026 20.9397C9.26379 21.4519 9.24394 21.9181 9.23071 22.3383C9.23071 22.7454 9.23071 23.0868 9.23071 23.3625C9.23071 24.0191 9.22409 24.6888 9.21085 25.3717C9.21085 26.0545 9.21085 26.698 9.21085 27.302C9.21085 27.893 9.20424 28.4182 9.191 28.8778C9.191 29.3375 9.191 29.6658 9.191 29.8627C9.191 29.9153 9.191 29.9875 9.191 30.0794C9.191 30.1713 9.17777 30.2567 9.1513 30.3355C9.12483 30.4274 9.07851 30.5062 9.01234 30.5718C8.95941 30.6375 8.88 30.6703 8.77413 30.6703C8.60209 30.6703 8.44328 30.6375 8.29771 30.5718C8.15213 30.5062 8.01318 30.4274 7.88084 30.3355C7.7485 30.2567 7.61616 30.1845 7.48382 30.1188C7.36471 30.0531 7.24561 30.0203 7.1265 30.0203C6.98093 30.0203 6.86182 30.0663 6.76918 30.1582C6.67655 30.2501 6.56406 30.2961 6.43172 30.2961C6.27291 30.2961 6.14719 30.2567 6.05455 30.1779C5.96191 30.0991 5.89574 30.0006 5.85604 29.8824C5.81634 29.7642 5.78987 29.6395 5.77663 29.5082C5.77663 29.3769 5.77663 29.2587 5.77663 29.1536C5.77663 28.9041 5.77663 28.5102 5.77663 27.9718C5.78987 27.4334 5.8031 26.8293 5.81634 26.1596C5.8428 25.4767 5.86927 24.7676 5.89574 24.0323C5.92221 23.2838 5.94868 22.5812 5.97514 21.9246L6.0347 20.7231C5.51857 20.618 5.11494 20.4867 4.82379 20.3291C4.54587 20.1715 4.40692 20.0008 4.40692 19.817C4.40692 19.5937 4.56572 19.3574 4.88334 19.1079C5.20096 18.8452 5.63768 18.6154 6.19351 18.4185C6.27291 17.4205 6.35893 16.429 6.45157 15.4441C6.55744 14.4461 6.65008 13.5335 6.72948 12.7062C6.82212 11.8789 6.90152 11.1698 6.96769 10.5788C7.0471 9.98792 7.10665 9.58741 7.14635 9.3773C7.23899 8.79951 7.33163 8.30707 7.42427 7.89998C7.53014 7.4929 7.64263 7.21714 7.76173 7.07269C7.85437 6.9545 7.96686 6.84945 8.0992 6.75753C8.20507 6.67874 8.33741 6.60651 8.49622 6.54086C8.65503 6.46207 8.83369 6.42267 9.0322 6.42267Z" fill="url(#paint0_linear)"/>
<path d="M28.2876 26.8096C28.6053 26.8096 28.8832 26.7046 29.1214 26.4944C29.3596 26.2843 29.5581 26.0086 29.7169 25.6672C29.889 25.3257 30.0279 24.9318 30.1338 24.4853C30.2397 24.0257 30.3191 23.553 30.372 23.0671C29.9882 22.8044 29.611 22.463 29.2405 22.0428C28.8832 21.6226 28.5589 21.1105 28.2678 20.5064C28.0958 20.1518 27.97 19.7907 27.8906 19.423C27.8112 19.0422 27.7715 18.6811 27.7715 18.3397C27.7715 17.9063 27.8311 17.4992 27.9502 17.1184C28.0693 16.7376 28.2413 16.4093 28.4663 16.1336C28.7045 15.8578 28.9957 15.6411 29.3397 15.4835C29.6838 15.3128 30.0808 15.2275 30.5308 15.2275C31.0999 15.2275 31.5631 15.3653 31.9204 15.6411C32.2909 15.9037 32.5821 16.2452 32.7938 16.6654C33.0056 17.0725 33.1511 17.5189 33.2305 18.0048C33.3232 18.4907 33.3695 18.9437 33.3695 19.3639C33.3695 19.9155 33.3298 20.4801 33.2504 21.0579C33.1842 21.6357 33.0717 22.2201 32.9129 22.811C33.4026 22.7716 33.8393 22.6403 34.2231 22.4171C34.6069 22.1807 34.9311 21.7867 35.1958 21.2352C35.3546 20.9069 35.52 20.7428 35.6921 20.7428C35.7847 20.7428 35.8641 20.769 35.9303 20.8216C36.0097 20.8741 36.0494 20.9594 36.0494 21.0776C36.0494 21.1695 36.0295 21.2615 35.9898 21.3534C35.7251 22.1019 35.2818 22.6928 34.6598 23.1262C34.051 23.5595 33.3695 23.7762 32.6152 23.7762C32.3902 24.4196 32.1123 25.0303 31.7814 25.6081C31.4638 26.1727 31.0866 26.6717 30.6499 27.1051C30.2132 27.5384 29.7169 27.8798 29.1611 28.1293C28.6053 28.3788 27.9899 28.5036 27.3149 28.5036C26.9576 28.5036 26.554 28.4511 26.104 28.346C25.6541 28.241 25.2306 28.0243 24.8336 27.696C24.4366 27.3546 24.1057 26.8818 23.841 26.2778C23.5631 25.6606 23.4242 24.8464 23.4242 23.8353C23.4242 23.008 23.583 22.1347 23.9006 21.2155C24.205 20.2963 24.7211 19.3836 25.449 18.4776C25.7269 18.1361 25.9783 17.8932 26.2033 17.7487C26.4415 17.6043 26.6334 17.5321 26.779 17.5321C27.0701 17.5321 27.2157 17.7094 27.2157 18.0639C27.2157 18.2215 27.1628 18.4185 27.0569 18.6548C26.951 18.8912 26.8385 19.1932 26.7194 19.5609C26.6003 19.9286 26.4878 20.3685 26.382 20.8807C26.2761 21.3797 26.2231 21.9706 26.2231 22.6534C26.2231 23.9666 26.4084 24.9909 26.779 25.7262C27.1628 26.4485 27.6656 26.8096 28.2876 26.8096ZM30.4911 21.0185C30.4911 19.6791 30.3654 18.7205 30.1139 18.1427C29.8625 17.5518 29.5846 17.3154 29.2802 17.4336C29.1479 17.4861 29.0684 17.6043 29.042 17.7881C29.0287 17.972 29.0221 18.1493 29.0221 18.32C29.0221 18.6089 29.0618 18.9109 29.1412 19.2261C29.2206 19.5412 29.3199 19.8564 29.439 20.1715C29.5713 20.4867 29.7235 20.7887 29.8956 21.0776C30.0808 21.3534 30.2727 21.6095 30.4713 21.8458C30.4845 21.7014 30.4911 21.5635 30.4911 21.4322C30.4911 21.3009 30.4911 21.163 30.4911 21.0185Z" fill="url(#paint1_linear)"/>
<path d="M49.0518 21.2352C48.7871 22.01 48.5026 22.7519 48.1982 23.461C47.907 24.157 47.5696 24.8267 47.1858 25.4702C46.8152 26.1005 46.3851 26.7111 45.8955 27.302C45.4058 27.8798 44.8367 28.4445 44.1883 28.996C44.1486 29.6264 44.0956 30.2632 44.0295 30.9067C43.9633 31.5501 43.8905 32.1805 43.8111 32.7977C43.5994 34.3997 43.3281 35.6998 42.9972 36.6978C42.6664 37.7089 42.3157 38.5165 41.9451 39.1206C41.5746 39.7246 41.1974 40.1711 40.8136 40.46C40.4431 40.7489 40.1122 40.9656 39.8211 41.11C39.1594 41.4383 38.6035 41.6025 38.1536 41.6025C37.5448 41.6025 37.075 41.3004 36.7442 40.6964C36.4133 40.0923 36.2479 39.311 36.2479 38.3524C36.2479 37.4463 36.4001 36.5927 36.7045 35.7917C37.0088 34.9906 37.3992 34.2356 37.8757 33.5265C38.3653 32.8174 38.9079 32.1542 39.5034 31.537C40.1122 30.933 40.721 30.3749 41.3297 29.8627C41.3694 29.3637 41.3959 28.8975 41.4091 28.4642C41.4356 28.0309 41.4621 27.6632 41.4885 27.3611C41.5282 26.5864 41.5547 25.7722 41.5679 24.9186C41.5812 24.052 41.601 23.2509 41.6275 22.5155C41.3231 23.6711 41.0187 24.6297 40.7144 25.3914C40.41 26.153 40.099 26.7571 39.7814 27.2036C39.477 27.65 39.1594 27.9652 38.8285 28.149C38.4977 28.3329 38.147 28.4248 37.7764 28.4248C37.5117 28.4248 37.2404 28.3526 36.9625 28.2081C36.6846 28.0506 36.4265 27.7682 36.1883 27.3611C35.9634 26.9409 35.7781 26.3631 35.6325 25.6278C35.4869 24.8793 35.4141 23.9206 35.4141 22.7519C35.4141 22.2792 35.4274 21.7999 35.4538 21.314C35.4935 20.815 35.5465 20.3357 35.6127 19.8761C35.6788 19.4033 35.7516 18.9634 35.831 18.5563C35.9104 18.1361 36.0031 17.7684 36.1089 17.4533C36.1619 17.2957 36.228 17.1775 36.3074 17.0987C36.3868 17.0068 36.453 16.928 36.506 16.8624C36.5721 16.7836 36.6251 16.7179 36.6648 16.6654C36.7177 16.5997 36.7772 16.5669 36.8434 16.5669C36.9493 16.5669 37.0221 16.6063 37.0618 16.6851C37.1015 16.7507 37.1743 16.7836 37.2801 16.7836C37.3198 16.7836 37.3926 16.7573 37.4985 16.7048C37.6044 16.6391 37.7169 16.5669 37.836 16.4881C37.9551 16.4093 38.0742 16.3437 38.1933 16.2911C38.3124 16.2255 38.4116 16.1926 38.491 16.1926C38.6366 16.1926 38.7094 16.3108 38.7094 16.5472C38.7094 16.6391 38.6962 16.7442 38.6697 16.8624C38.6565 16.9805 38.6366 17.1184 38.6102 17.276C38.4778 17.8801 38.3918 18.517 38.3521 19.1867C38.3256 19.8433 38.3124 20.6049 38.3124 21.4716C38.3124 22.0625 38.3124 22.6075 38.3124 23.1065C38.3256 23.5923 38.3587 24.0126 38.4116 24.3671C38.4646 24.7217 38.544 24.9974 38.6499 25.1944C38.769 25.3914 38.9278 25.4899 39.1263 25.4899C39.3645 25.4899 39.5829 25.3192 39.7814 24.9777C39.9931 24.6363 40.1916 24.203 40.3769 23.6777C40.5622 23.1393 40.7408 22.5418 40.9129 21.8852C41.0849 21.2286 41.257 20.5852 41.429 19.9549C41.601 19.3114 41.7665 18.7205 41.9253 18.1821C42.0973 17.6306 42.276 17.1972 42.4612 16.8821C42.6068 16.6457 42.8318 16.4421 43.1362 16.2714C43.4538 16.1007 43.7317 16.0154 43.9699 16.0154C44.1023 16.0154 44.2147 16.0351 44.3074 16.0745C44.4 16.1007 44.4794 16.1664 44.5456 16.2714C44.6118 16.3634 44.6581 16.5078 44.6846 16.7048C44.7243 16.8886 44.7441 17.1381 44.7441 17.4533C44.7441 17.9917 44.7309 18.5826 44.7044 19.2261C44.6912 19.8564 44.6713 20.4736 44.6449 21.0776C44.6184 21.6686 44.5919 22.2004 44.5654 22.6731C44.539 23.1459 44.5191 23.4873 44.5059 23.6974C44.4794 23.9994 44.4463 24.4984 44.4066 25.1944C44.3802 25.8773 44.3405 26.6652 44.2875 27.5581C44.7772 27.151 45.2073 26.7243 45.5778 26.2778C45.9616 25.8182 46.3057 25.3323 46.6101 24.8202C46.9145 24.2949 47.199 23.7368 47.4637 23.1459C47.7284 22.5549 47.9864 21.9181 48.2379 21.2352C48.3835 20.8807 48.582 20.7034 48.8334 20.7034C49.0187 20.7034 49.1113 20.7953 49.1113 20.9791C49.1113 21.0185 49.1047 21.0645 49.0915 21.117C49.0782 21.1695 49.065 21.2089 49.0518 21.2352ZM40.9129 33.3295C40.9526 33.0931 40.9923 32.8502 41.032 32.6007C41.0717 32.3512 41.1048 32.0951 41.1312 31.8325C40.7607 32.2658 40.4166 32.7254 40.099 33.2113C39.7946 33.6972 39.5299 34.2224 39.3049 34.7871C39.0932 35.3649 38.9212 35.9821 38.7888 36.6387C38.6697 37.3084 38.6102 38.0372 38.6102 38.8251C38.6102 39.2716 38.6432 39.5867 38.7094 39.7706C38.7888 39.9544 38.8682 40.0463 38.9476 40.0463C39.08 40.0463 39.2189 39.9216 39.3645 39.6721C39.5101 39.4226 39.6424 39.1009 39.7615 38.7069C39.8938 38.313 40.0196 37.8665 40.1387 37.3675C40.2578 36.8816 40.3637 36.3892 40.4563 35.8902C40.5622 35.3912 40.6548 34.9119 40.7342 34.4522C40.8136 34.0058 40.8732 33.6315 40.9129 33.3295Z" fill="url(#paint2_linear)"/>
<path d="M59.4537 21.3534C59.0567 22.5352 58.6861 23.5726 58.342 24.4656C57.9979 25.3454 57.6539 26.0874 57.3098 26.6914C56.9657 27.2823 56.5951 27.7288 56.1981 28.0309C55.8143 28.3329 55.3842 28.4839 54.9078 28.4839C54.577 28.4839 54.299 28.3788 54.0741 28.1687C53.8623 27.9586 53.6837 27.7223 53.5381 27.4596C53.3925 27.197 53.28 26.9475 53.2006 26.7111C53.1345 26.4616 53.0881 26.2975 53.0617 26.2187C53.0484 26.1924 53.0352 26.153 53.022 26.1005C53.0087 26.048 52.9889 26.0217 52.9624 26.0217C52.9359 26.0217 52.9095 26.0414 52.883 26.0808C52.8698 26.1202 52.8499 26.1596 52.8235 26.199C52.7838 26.2909 52.6779 26.4616 52.5058 26.7111C52.3338 26.9606 52.1154 27.2167 51.8508 27.4793C51.5993 27.742 51.3082 27.9783 50.9773 28.1884C50.6465 28.3854 50.2891 28.4839 49.9054 28.4839C49.601 28.4839 49.3032 28.3854 49.0121 28.1884C48.7342 27.9915 48.4893 27.7288 48.2776 27.4005C48.0658 27.0591 47.9004 26.6586 47.7813 26.199C47.649 25.7394 47.5828 25.2469 47.5828 24.7217C47.5828 23.5792 47.7681 22.509 48.1386 21.511C48.4959 20.4998 49.0849 19.4887 49.9054 18.4776C50.3024 17.9917 50.7192 17.5583 51.156 17.1775C51.6059 16.7967 52.0426 16.4815 52.4661 16.232C52.8896 15.9694 53.2933 15.7724 53.677 15.6411C54.0741 15.5098 54.4115 15.4441 54.6894 15.4441C54.8747 15.4441 55.06 15.477 55.2453 15.5426C55.4305 15.6083 55.596 15.7199 55.7415 15.8775C55.8871 16.0351 55.9996 16.2452 56.079 16.5078C56.1717 16.7573 56.218 17.0659 56.218 17.4336C56.218 17.8275 56.1518 18.2543 56.0195 18.7139C55.9004 19.1735 55.7151 19.6069 55.4636 20.014C55.2254 20.4079 54.9277 20.7362 54.5703 20.9988C54.213 21.2615 53.8094 21.3928 53.3594 21.3928C53.0815 21.3928 52.9426 21.2877 52.9426 21.0776C52.9426 20.9332 52.9756 20.6968 53.0418 20.3685C53.1212 20.0402 53.1609 19.7251 53.1609 19.423C53.1609 19.3049 53.1543 19.167 53.1411 19.0094C53.1278 18.8387 53.0947 18.6745 53.0418 18.517C52.9889 18.3594 52.9161 18.2281 52.8235 18.123C52.7308 18.0179 52.6051 17.9654 52.4463 17.9654C52.089 17.9654 51.778 18.1296 51.5133 18.4579C51.2486 18.7861 51.0236 19.1867 50.8384 19.6594C50.6663 20.1321 50.534 20.6246 50.4413 21.1367C50.3487 21.6489 50.3024 22.0888 50.3024 22.4565C50.3024 22.9555 50.3421 23.3757 50.4215 23.7171C50.5009 24.0454 50.6068 24.3146 50.7391 24.5247C50.8714 24.7217 51.0236 24.8661 51.1957 24.958C51.3677 25.0368 51.5464 25.0762 51.7317 25.0762C52.1684 25.0762 52.5588 24.9318 52.9029 24.6429C53.2469 24.3409 53.5447 24.0126 53.7962 23.658C54.0476 23.2903 54.2527 22.962 54.4115 22.6731C54.5836 22.3711 54.7225 22.2201 54.8284 22.2201C54.9475 22.2201 55.0269 22.358 55.0666 22.6337C55.146 23.2247 55.232 23.7105 55.3247 24.0914C55.4173 24.4722 55.51 24.7742 55.6026 24.9974C55.6952 25.2075 55.7879 25.3586 55.8805 25.4505C55.9864 25.5293 56.0922 25.5687 56.1981 25.5687C56.3966 25.5687 56.5951 25.457 56.7937 25.2338C56.9922 24.9974 57.1907 24.6823 57.3892 24.2883C57.5877 23.8944 57.7928 23.4348 58.0046 22.9095C58.2163 22.3842 58.4413 21.8261 58.6795 21.2352C58.8251 20.9069 58.9971 20.7428 59.1956 20.7428C59.3941 20.7428 59.4934 20.861 59.4934 21.0973C59.4934 21.1892 59.4801 21.2746 59.4537 21.3534Z" fill="url(#paint3_linear)"/>
<path d="M66.1832 20.7428C66.2626 20.7428 66.3287 20.7756 66.3817 20.8413C66.4478 20.8938 66.4809 20.9726 66.4809 21.0776C66.4809 21.1695 66.4611 21.2615 66.4214 21.3534C66.1567 22.115 65.8986 22.8176 65.6472 23.461C65.409 24.0914 65.1708 24.6757 64.9325 25.2141C64.7076 25.7262 64.4892 26.1662 64.2775 26.5338C64.079 26.9015 63.8804 27.2101 63.6819 27.4596C63.4967 27.7091 63.3048 27.9127 63.1063 28.0702C62.921 28.2147 62.7291 28.3198 62.5306 28.3854C62.3321 28.4511 62.1005 28.4839 61.8358 28.4839C61.5447 28.4839 61.227 28.4182 60.8829 28.2869C60.5389 28.1687 60.2146 27.9324 59.9103 27.5778C59.6191 27.2233 59.3743 26.7308 59.1758 26.1005C58.9773 25.457 58.878 24.6232 58.878 23.5989C58.878 23.3231 58.8912 22.857 58.9177 22.2004C58.9574 21.5438 59.0037 20.7559 59.0567 19.8367C59.1228 18.9043 59.1956 17.8538 59.275 16.6851C59.3677 15.5164 59.4669 14.282 59.5728 12.9819C59.639 12.1809 59.7184 11.3077 59.811 10.3622C59.9169 9.40356 60.0227 8.47121 60.1286 7.56513C60.2345 6.65904 60.3404 5.82518 60.4462 5.06354C60.5521 4.3019 60.6447 3.70441 60.7241 3.27107C60.8168 2.81146 60.9954 2.45034 61.2601 2.1877C61.5248 1.92507 61.8226 1.64274 62.1534 1.34071C62.2725 1.22252 62.3982 1.09777 62.5306 0.966456C62.6629 0.822008 62.7953 0.690691 62.9276 0.572506C63.0599 0.454321 63.1857 0.355833 63.3048 0.277043C63.4371 0.185121 63.5628 0.13916 63.6819 0.13916C63.8672 0.13916 63.9599 0.231082 63.9599 0.414926C63.9599 0.559374 63.9268 0.822008 63.8606 1.20283C63.7944 1.58365 63.7018 2.19427 63.5827 3.0347C63.4636 3.87512 63.318 5.01101 63.146 6.44237C62.9872 7.86059 62.8151 9.68589 62.6298 11.9183C62.5901 12.3648 62.5438 12.8966 62.4909 13.5138C62.4379 14.131 62.385 14.7876 62.3321 15.4835C62.2791 16.1664 62.2262 16.8689 62.1733 17.5912C62.1336 18.3003 62.0939 18.9766 62.0542 19.62C62.0145 20.2503 61.9814 20.8281 61.9549 21.3534C61.9284 21.8787 61.9152 22.2989 61.9152 22.614C61.9152 23.5201 62.0078 24.2358 62.1931 24.7611C62.3916 25.2732 62.7159 25.5293 63.1658 25.5293C63.4173 25.5293 63.6422 25.4177 63.8407 25.1944C64.0393 24.9712 64.2311 24.6691 64.4164 24.2883C64.6017 23.8944 64.7936 23.4413 64.9921 22.9292C65.1906 22.4039 65.409 21.8393 65.6472 21.2352C65.7134 21.0776 65.7928 20.9594 65.8854 20.8807C65.978 20.7887 66.0773 20.7428 66.1832 20.7428Z" fill="url(#paint4_linear)"/>
<path d="M68.9928 23.5951C68.5889 23.5951 68.1633 23.6381 67.7161 23.7241C67.2834 23.7957 66.8867 23.9533 66.526 24.1968C66.1654 24.4403 65.8696 24.7841 65.6388 25.2282C65.408 25.6722 65.2926 26.2667 65.2926 27.0116C65.2926 27.7708 65.4224 28.6446 65.6821 29.633C65.9418 30.6071 66.2231 31.6958 66.526 32.8991C66.8289 34.088 67.1103 35.3844 67.3699 36.7883C67.6296 38.1778 67.7594 39.6532 67.7594 41.2146C67.7594 42.7187 67.5935 44.0653 67.2617 45.2542C66.9444 46.4288 66.5188 47.4387 65.985 48.2839C66.6198 48.4558 67.2762 48.6277 67.9542 48.7996C68.6322 48.9715 69.3679 49.1219 70.1613 49.2508C70.6229 49.3368 71.0918 49.4012 71.5678 49.4442C72.0583 49.4729 72.5488 49.4872 73.0393 49.4872C73.876 49.4872 74.6838 49.4156 75.4628 49.2723C76.2418 49.1147 76.927 48.8641 77.5185 48.5203C78.1244 48.1765 78.6077 47.7252 78.9683 47.1666C79.3289 46.5936 79.5093 45.8845 79.5093 45.0393C79.5093 44.9104 79.5021 44.7815 79.4876 44.6526C79.4732 44.5093 79.466 44.3589 79.466 44.2013C79.466 43.8575 79.5814 43.6856 79.8122 43.6856C79.8843 43.6856 79.9709 43.7286 80.0719 43.8146C80.1729 43.9005 80.2666 44.0438 80.3532 44.2443C80.4542 44.4449 80.5335 44.7099 80.5912 45.0393C80.6633 45.3545 80.6994 45.7413 80.6994 46.1997C80.6994 46.5578 80.6561 46.966 80.5696 47.4244C80.483 47.8828 80.3315 48.3627 80.1151 48.8641C79.9132 49.3511 79.6319 49.831 79.2712 50.3037C78.925 50.7908 78.485 51.2205 77.9513 51.5929C77.4175 51.9797 76.7756 52.2877 76.0254 52.5169C75.2897 52.7461 74.4314 52.8607 73.4504 52.8607C72.6281 52.8607 71.7842 52.7891 70.9187 52.6458C70.0531 52.5169 69.1876 52.345 68.322 52.1301C67.4709 51.9152 66.6414 51.6717 65.8336 51.3996C65.0401 51.1274 64.3044 50.8624 63.6264 50.6045C62.9773 51.0199 62.2632 51.3566 61.4842 51.6144C60.7196 51.8866 59.955 52.0227 59.1905 52.0227C58.2095 52.0227 57.4594 51.815 56.94 51.3996C56.4351 50.9985 56.1827 50.4756 56.1827 49.831C56.1827 49.1434 56.5217 48.5632 57.1997 48.0905C57.8777 47.6178 58.9669 47.3814 60.4672 47.3814C60.8278 47.3814 61.174 47.3958 61.5058 47.4244C61.852 47.4531 62.191 47.4889 62.5228 47.5319C62.9123 46.6151 63.2081 45.5908 63.41 44.4592C63.612 43.3275 63.713 42.1529 63.713 40.9353C63.713 39.9755 63.6408 39.0301 63.4966 38.099C63.3667 37.1535 63.2225 36.2224 63.0638 35.3056C62.9051 34.3745 62.7537 33.4434 62.6094 32.5123C62.4796 31.5812 62.4146 30.6358 62.4146 29.676C62.4146 28.1862 62.6022 26.811 62.9773 25.5505C63.3523 24.2899 63.8933 23.2084 64.6002 22.3059C65.307 21.3891 66.1581 20.6729 67.1535 20.1572C68.1489 19.6415 69.2741 19.3836 70.5292 19.3836C71.6688 19.3836 72.7075 19.5627 73.6452 19.9208C74.5973 20.2646 75.4195 20.6729 76.112 21.1456C76.8044 21.6183 77.3526 22.091 77.7565 22.5637C78.1749 23.0365 78.4201 23.3946 78.4922 23.6381C78.5211 23.7814 78.5499 23.9031 78.5788 24.0034C78.6077 24.0893 78.6221 24.1681 78.6221 24.2397C78.6221 24.3973 78.5788 24.5191 78.4922 24.605C78.4201 24.691 78.3336 24.8127 78.2326 24.9703C78.146 25.1136 78.045 25.221 77.9296 25.2926C77.8142 25.3499 77.6988 25.4001 77.5834 25.443C77.468 25.486 77.3526 25.5361 77.2372 25.5934C77.1362 25.6507 77.0569 25.751 76.9992 25.8943C76.8982 26.1091 76.7611 26.2739 76.588 26.3885C76.4149 26.4887 76.2274 26.5389 76.0254 26.5389C75.7802 26.5389 75.5782 26.4887 75.4195 26.3885C75.3041 26.3168 75.0589 26.1306 74.6838 25.8298C74.3232 25.529 73.8615 25.2138 73.2989 24.8844C72.7363 24.5549 72.0872 24.2612 71.3515 24.0034C70.6157 23.7312 69.8295 23.5951 68.9928 23.5951ZM58.6279 50.9268C59.1328 50.9268 59.6016 50.8122 60.0344 50.583C60.4672 50.3538 60.8639 50.0387 61.2245 49.6376C60.5898 49.3941 60.0632 49.215 59.6449 49.1004C59.241 48.9858 58.8875 48.9285 58.5846 48.9285C58.2816 48.9285 58.0436 48.9715 57.8705 49.0574C57.6974 49.1291 57.5676 49.2222 57.481 49.3368C57.3945 49.4371 57.3368 49.5517 57.3079 49.6806C57.2935 49.7952 57.2863 49.8883 57.2863 49.9599C57.2863 50.2034 57.3945 50.4255 57.6108 50.626C57.8417 50.8266 58.1807 50.9268 58.6279 50.9268Z" fill="url(#paint5_linear)"/>
<path d="M88.0349 27.5703C88.0782 27.6562 88.0998 27.7493 88.0998 27.8496C88.0998 28.1218 87.9267 28.4083 87.5805 28.7091C87.292 28.9669 87.0251 29.2176 86.7799 29.4611C86.5347 29.7047 86.311 29.9267 86.1091 30.1272C85.9071 30.3135 85.7268 30.4639 85.5681 30.5785C85.4094 30.6931 85.2796 30.7504 85.1786 30.7504C85.1065 30.7504 85.0344 30.736 84.9622 30.7074C84.9045 30.6787 84.8468 30.6143 84.7891 30.514C84.616 30.1845 84.4429 29.8407 84.2698 29.4826C84.0967 29.1245 83.938 28.7879 83.7937 28.4727C83.6639 28.1576 83.5557 27.8854 83.4692 27.6562C83.3826 27.4127 83.3393 27.248 83.3393 27.162C83.3393 27.0044 83.4115 26.8325 83.5557 26.6463C83.6134 26.5604 83.7433 26.3956 83.9452 26.1521C84.1616 25.9086 84.3852 25.6507 84.616 25.3786C84.8613 25.1064 85.0848 24.8557 85.2868 24.6265C85.5032 24.3973 85.6475 24.2469 85.7196 24.1753C85.8927 23.9747 86.037 23.8745 86.1524 23.8745C86.2822 23.8745 86.3832 23.9676 86.4553 24.1538C86.4986 24.2541 86.5924 24.4689 86.7366 24.7984C86.8953 25.1279 87.0612 25.486 87.2343 25.8728C87.4074 26.2452 87.5733 26.5962 87.732 26.9256C87.8907 27.2551 87.9917 27.47 88.0349 27.5703ZM90.9129 41.8592C90.9994 41.8592 91.0716 41.8951 91.1293 41.9667C91.2014 42.024 91.2375 42.1099 91.2375 42.2245C91.2375 42.3248 91.2158 42.4251 91.1726 42.5253C90.8408 43.4708 90.5306 44.3303 90.2421 45.1038C89.968 45.8773 89.6867 46.5649 89.3982 47.1666C88.9798 48.069 88.5759 48.7638 88.1864 49.2508C87.8113 49.7236 87.3858 50.0387 86.9097 50.1963C86.7943 50.2249 86.6645 50.2536 86.5202 50.2822C86.376 50.3109 86.2245 50.3252 86.0658 50.3252C85.7052 50.3252 85.3157 50.2536 84.8973 50.1103C84.4934 49.9671 84.1111 49.6949 83.7505 49.2938C83.4042 48.8927 83.1157 48.334 82.8849 47.6178C82.6541 46.8872 82.5387 45.9418 82.5387 44.7815C82.5387 43.7501 82.5748 42.7617 82.6469 41.8163C82.719 40.8565 82.8272 39.8896 82.9715 38.9155C83.1879 38.4714 83.4475 38.0703 83.7505 37.7122C84.0678 37.3398 84.3852 37.0246 84.7026 36.7668C85.0199 36.4946 85.3084 36.2869 85.5681 36.1437C85.8422 36.0004 86.0442 35.9288 86.174 35.9288C86.2317 35.9288 86.2606 35.9932 86.2606 36.1222C86.2606 36.2368 86.2389 36.4373 86.1956 36.7238C86.1668 36.996 86.1307 37.3827 86.0874 37.8841C86.0442 38.3855 85.9937 39.0301 85.936 39.818C85.8927 40.5915 85.8566 41.5369 85.8278 42.6543C85.8278 43.2989 85.8638 43.8934 85.936 44.4377C86.0225 44.982 86.1379 45.4548 86.2822 45.8559C86.4409 46.257 86.6284 46.5721 86.8448 46.8013C87.0612 47.0162 87.2992 47.1236 87.5589 47.1236C87.8041 47.1236 88.0349 47.009 88.2513 46.7798C88.4677 46.5363 88.6841 46.2068 88.9005 45.7914C89.1169 45.3617 89.3405 44.8603 89.5713 44.2873C89.8021 43.7 90.0473 43.0697 90.307 42.3964C90.4513 42.0383 90.6532 41.8592 90.9129 41.8592Z" fill="url(#paint6_linear)"/>
<path d="M95.0243 48.4773C95.3705 48.4773 95.6734 48.3627 95.9331 48.1335C96.1927 47.9043 96.4091 47.6035 96.5822 47.231C96.7698 46.8586 96.9212 46.4288 97.0367 45.9418C97.1521 45.4404 97.2386 44.9247 97.2963 44.3947C96.878 44.1082 96.4668 43.7358 96.0629 43.2774C95.6734 42.819 95.32 42.2603 95.0026 41.6014C94.8151 41.2146 94.678 40.8207 94.5915 40.4196C94.5049 40.0042 94.4616 39.6102 94.4616 39.2378C94.4616 38.7651 94.5266 38.321 94.6564 37.9056C94.7862 37.4902 94.9738 37.1321 95.219 36.8312C95.4787 36.5304 95.796 36.2941 96.1711 36.1222C96.5462 35.9359 96.979 35.8428 97.4694 35.8428C98.0897 35.8428 98.5947 35.9932 98.9841 36.2941C99.3881 36.5806 99.7054 36.953 99.9363 37.4114C100.167 37.8555 100.326 38.3425 100.412 38.8725C100.513 39.4025 100.564 39.8967 100.564 40.3551C100.564 40.9568 100.52 41.5727 100.434 42.203C100.362 42.8333 100.239 43.4708 100.066 44.1154C100.6 44.0724 101.076 43.9292 101.494 43.6856C101.913 43.4278 102.266 42.9981 102.555 42.3964C102.728 42.0383 102.908 41.8592 103.096 41.8592C103.196 41.8592 103.283 41.8879 103.355 41.9452C103.442 42.0025 103.485 42.0956 103.485 42.2245C103.485 42.3248 103.463 42.4251 103.42 42.5253C103.132 43.3419 102.648 43.9865 101.97 44.4592C101.307 44.9319 100.564 45.1683 99.7415 45.1683C99.4963 45.8702 99.1933 46.5363 98.8327 47.1666C98.4865 47.7825 98.0753 48.3269 97.5993 48.7996C97.1232 49.2723 96.5822 49.6448 95.9764 49.9169C95.3705 50.1891 94.6997 50.3252 93.964 50.3252C93.5745 50.3252 93.1345 50.2679 92.644 50.1533C92.1535 50.0387 91.6919 49.8023 91.2591 49.4442C90.8263 49.0718 90.4657 48.5561 90.1772 47.8971C89.8742 47.2239 89.7228 46.3357 89.7228 45.2327C89.7228 44.3303 89.8959 43.3777 90.2421 42.3749C90.5739 41.3722 91.1365 40.3766 91.9299 39.3882C92.2329 39.0158 92.5069 38.7508 92.7522 38.5932C93.0118 38.4356 93.221 38.3568 93.3797 38.3568C93.6971 38.3568 93.8558 38.5502 93.8558 38.937C93.8558 39.1089 93.7981 39.3238 93.6827 39.5816C93.5672 39.8394 93.4446 40.1689 93.3148 40.57C93.185 40.9711 93.0623 41.451 92.9469 42.0097C92.8315 42.554 92.7738 43.1986 92.7738 43.9435C92.7738 45.376 92.9758 46.4933 93.3797 47.2955C93.7981 48.0834 94.3462 48.4773 95.0243 48.4773ZM97.4262 42.1601C97.4262 40.6989 97.2891 39.6532 97.015 39.0229C96.7409 38.3783 96.438 38.1205 96.1062 38.2494C95.9619 38.3067 95.8754 38.4356 95.8465 38.6362C95.8321 38.8367 95.8249 39.0301 95.8249 39.2163C95.8249 39.5315 95.8682 39.8609 95.9547 40.2047C96.0413 40.5485 96.1495 40.8923 96.2793 41.2361C96.4236 41.5799 96.5895 41.9094 96.777 42.2245C96.979 42.5253 97.1881 42.8047 97.4045 43.0625C97.4189 42.905 97.4262 42.7545 97.4262 42.6113C97.4262 42.468 97.4262 42.3176 97.4262 42.1601Z" fill="url(#paint7_linear)"/>
<path d="M118.675 41.8592C118.762 41.8592 118.834 41.8951 118.892 41.9667C118.964 42.024 119 42.1099 119 42.2245C119 42.3391 118.978 42.4466 118.935 42.5468C118.488 43.8217 118.077 44.9462 117.702 45.9203C117.327 46.8801 116.944 47.6823 116.555 48.3269C116.18 48.9715 115.79 49.4585 115.386 49.788C114.982 50.1175 114.535 50.2822 114.045 50.2822C113.439 50.2822 112.948 50.1461 112.573 49.874C112.198 49.5875 111.902 49.2222 111.686 48.7781C111.47 48.334 111.325 47.8398 111.253 47.2955C111.181 46.7368 111.145 46.1853 111.145 45.641C111.145 45.2542 111.152 44.8746 111.167 44.5022C111.181 44.1154 111.196 43.7501 111.21 43.4063C111.239 43.0625 111.261 42.7545 111.275 42.4824C111.289 42.2102 111.297 41.9882 111.297 41.8163C111.297 41.5441 111.246 41.3507 111.145 41.2361C111.059 41.1072 110.958 41.0427 110.842 41.0427C110.712 41.0427 110.604 41.1072 110.518 41.2361C110.431 41.3507 110.359 41.4868 110.301 41.6444C110.229 41.8163 110.121 42.1242 109.977 42.5683C109.832 43.0124 109.666 43.5138 109.479 44.0724C109.291 44.6311 109.089 45.2184 108.873 45.8344C108.671 46.436 108.484 46.9804 108.31 47.4674C108.08 48.0977 107.856 48.6134 107.64 49.0145C107.438 49.4012 107.243 49.7021 107.055 49.9169C106.868 50.1318 106.68 50.2751 106.493 50.3467C106.32 50.4326 106.154 50.4756 105.995 50.4756C105.851 50.4756 105.699 50.447 105.541 50.3897C105.396 50.3324 105.259 50.2392 105.13 50.1103C105.014 49.9814 104.913 49.8095 104.827 49.5946C104.74 49.3654 104.697 49.0789 104.697 48.7351C104.668 48.0046 104.646 47.2167 104.632 46.3716C104.632 45.5121 104.632 44.6741 104.632 43.8575C104.632 43.4708 104.632 43.0983 104.632 42.7402C104.646 42.3821 104.654 42.0526 104.654 41.7518C104.654 41.3364 104.632 41.0427 104.589 40.8708C104.545 40.6846 104.488 40.5915 104.415 40.5915C104.257 40.5915 104.12 40.7491 104.004 41.0642C103.903 41.365 103.723 41.8378 103.463 42.4824C103.377 42.6972 103.283 42.8477 103.182 42.9336C103.096 43.0196 103.002 43.0625 102.901 43.0625C102.814 43.0625 102.742 43.0339 102.684 42.9766C102.612 42.9049 102.576 42.7904 102.576 42.6328C102.576 42.5468 102.612 42.3964 102.684 42.1815C102.757 41.9524 102.843 41.7088 102.944 41.451C103.059 41.1788 103.168 40.9066 103.269 40.6345C103.384 40.348 103.485 40.1045 103.572 39.9039C103.701 39.5744 103.853 39.2378 104.026 38.894C104.214 38.5359 104.415 38.2136 104.632 37.9271C104.863 37.6263 105.108 37.3827 105.368 37.1965C105.642 36.996 105.937 36.8957 106.255 36.8957C106.673 36.8957 107.041 37.1249 107.358 37.5833C107.69 38.0417 107.87 38.7364 107.899 39.6675C107.914 40.4124 107.921 41.1215 107.921 41.7948C107.935 42.4537 107.95 43.0339 107.964 43.5352C107.979 44.0223 107.986 44.4162 107.986 44.717C108 45.0035 108.015 45.1468 108.029 45.1468C108.058 45.1468 108.123 45.0179 108.224 44.76C108.325 44.5022 108.455 44.1655 108.613 43.7501C108.772 43.3204 108.952 42.8405 109.154 42.3105C109.356 41.7661 109.566 41.2218 109.782 40.6774C110.013 40.1188 110.251 39.5888 110.496 39.0874C110.741 38.5717 110.986 38.1205 111.232 37.7337C111.491 37.3183 111.765 37.0031 112.054 36.7883C112.357 36.5734 112.696 36.466 113.071 36.466C113.59 36.466 113.965 36.7739 114.196 37.3899C114.427 37.9915 114.542 38.8081 114.542 39.8394C114.542 40.0973 114.535 40.4124 114.521 40.7849C114.506 41.1573 114.485 41.5513 114.456 41.9667C114.441 42.3821 114.427 42.7975 114.413 43.2129C114.398 43.6283 114.391 44.008 114.391 44.3518C114.391 44.9391 114.413 45.419 114.456 45.7914C114.514 46.1495 114.586 46.4288 114.672 46.6294C114.759 46.8299 114.853 46.966 114.954 47.0377C115.055 47.1093 115.156 47.1451 115.257 47.1451C115.545 47.1451 115.805 47.0162 116.035 46.7583C116.281 46.5005 116.512 46.1495 116.728 45.7054C116.944 45.2614 117.161 44.76 117.377 44.2013C117.593 43.6284 117.832 43.0267 118.091 42.3964C118.221 42.0383 118.416 41.8592 118.675 41.8592Z" fill="url(#paint8_linear)"/>
<defs>
<linearGradient id="paint0_linear" x1="89.3" y1="14.3744" x2="83.7263" y2="54.0895" gradientUnits="userSpaceOnUse">
<stop stop-color="#4598C6"/>
<stop offset="0.824654" stop-color="#032B4F"/>
</linearGradient>
<linearGradient id="paint1_linear" x1="89.3" y1="14.3744" x2="83.7263" y2="54.0895" gradientUnits="userSpaceOnUse">
<stop stop-color="#4598C6"/>
<stop offset="0.824654" stop-color="#032B4F"/>
</linearGradient>
<linearGradient id="paint2_linear" x1="89.3" y1="14.3744" x2="83.7263" y2="54.0895" gradientUnits="userSpaceOnUse">
<stop stop-color="#4598C6"/>
<stop offset="0.824654" stop-color="#032B4F"/>
</linearGradient>
<linearGradient id="paint3_linear" x1="89.3" y1="14.3744" x2="83.7263" y2="54.0895" gradientUnits="userSpaceOnUse">
<stop stop-color="#4598C6"/>
<stop offset="0.824654" stop-color="#032B4F"/>
</linearGradient>
<linearGradient id="paint4_linear" x1="89.3" y1="14.3744" x2="83.7263" y2="54.0895" gradientUnits="userSpaceOnUse">
<stop stop-color="#4598C6"/>
<stop offset="0.824654" stop-color="#032B4F"/>
</linearGradient>
<linearGradient id="paint5_linear" x1="89.3" y1="14.3744" x2="83.7263" y2="54.0895" gradientUnits="userSpaceOnUse">
<stop stop-color="#4598C6"/>
<stop offset="0.824654" stop-color="#032B4F"/>
</linearGradient>
<linearGradient id="paint6_linear" x1="89.3" y1="14.3744" x2="83.7263" y2="54.0895" gradientUnits="userSpaceOnUse">
<stop stop-color="#4598C6"/>
<stop offset="0.824654" stop-color="#032B4F"/>
</linearGradient>
<linearGradient id="paint7_linear" x1="89.3" y1="14.3744" x2="83.7263" y2="54.0895" gradientUnits="userSpaceOnUse">
<stop stop-color="#4598C6"/>
<stop offset="0.824654" stop-color="#032B4F"/>
</linearGradient>
<linearGradient id="paint8_linear" x1="89.3" y1="14.3744" x2="83.7263" y2="54.0895" gradientUnits="userSpaceOnUse">
<stop stop-color="#4598C6"/>
<stop offset="0.824654" stop-color="#032B4F"/>
</linearGradient>
</defs>
</svg>
